<svg width="92" height="92" viewBox="0 0 92 92" fill="none" xmlns="http://www.w3.org/2000/svg">
<ellipse cx="45.5" cy="46" rx="45.5" ry="46" fill="#FDE9E9"/>
<path fill-rule="evenodd" clip-rule="evenodd" d="M25.1667 32.4583C25.1667 28.4313 28.4313 25.1667 32.4584 25.1667C36.4854 25.1667 39.75 28.4313 39.75 32.4583C39.75 35.7615 37.5537 38.5516 34.5417 39.448V52.552C37.5537 53.4484 39.75 56.2385 39.75 59.5417C39.75 63.5687 36.4854 66.8333 32.4584 66.8333C28.4313 66.8333 25.1667 63.5687 25.1667 59.5417C25.1667 56.2385 27.3631 53.4484 30.375 52.552V39.448C27.3631 38.5516 25.1667 35.7615 25.1667 32.4583ZM52.6815 25.7769C53.4951 26.5905 53.4951 27.9095 52.6815 28.7231L51.0296 30.375L52.9553 30.375C54.0535 30.375 55.001 30.3749 55.7813 30.4387C56.605 30.506 57.4242 30.6546 58.2125 31.0562C59.3885 31.6554 60.3446 32.6115 60.9438 33.7876C61.3455 34.5759 61.494 35.3951 61.5613 36.2187C61.6251 36.999 61.6251 37.9464 61.625 39.0447V52.552C64.637 53.4484 66.8334 56.2385 66.8334 59.5417C66.8334 63.5687 63.5688 66.8333 59.5417 66.8333C55.5146 66.8333 52.25 63.5687 52.25 59.5417C52.25 56.2385 54.4464 53.4484 57.4584 52.552V39.125C57.4584 37.9238 57.4567 37.1483 57.4085 36.558C57.3623 35.992 57.2838 35.7822 57.2313 35.6792C57.0315 35.2872 56.7128 34.9685 56.3208 34.7687C56.2178 34.7163 56.008 34.6378 55.442 34.5915C54.8517 34.5433 54.0762 34.5417 52.875 34.5417H51.0296L52.6815 36.1935C53.4951 37.0071 53.4951 38.3262 52.6815 39.1398C51.8679 39.9534 50.5488 39.9534 49.7352 39.1398L44.5269 33.9315C43.7133 33.1179 43.7133 31.7988 44.5269 30.9852L49.7352 25.7769C50.5488 24.9633 51.8679 24.9633 52.6815 25.7769Z" fill="#ED4B4B"/>
</svg>
