<svg width="92" height="92" viewBox="0 0 92 92" fill="none" xmlns="http://www.w3.org/2000/svg">
<ellipse cx="45.5" cy="46" rx="45.5" ry="46" fill="#FDE9E9"/>
<path d="M29.3333 35.5833C29.3333 30.981 33.0643 27.25 37.6666 27.25C42.269 27.25 46 30.981 46 35.5833C46 40.1857 42.269 43.9167 37.6666 43.9167C33.0643 43.9167 29.3333 40.1857 29.3333 35.5833Z" fill="#ED4B4B"/>
<path d="M25.1666 58.5C25.1666 51.5964 30.7631 46 37.6666 46C44.5702 46 50.1666 51.5964 50.1666 58.5V62.6667C50.1666 63.8173 49.2339 64.75 48.0833 64.75H27.25C26.0994 64.75 25.1666 63.8173 25.1666 62.6667V58.5Z" fill="#ED4B4B"/>
<path d="M54.3333 33.5C50.8815 33.5 48.0833 36.2982 48.0833 39.75C48.0833 43.2018 50.8815 46 54.3333 46C57.7851 46 60.5833 43.2018 60.5833 39.75C60.5833 36.2982 57.7851 33.5 54.3333 33.5Z" fill="#ED4B4B"/>
<path d="M54.3333 48.0833C52.4238 48.0833 50.6207 48.5351 49.0113 49.3355C51.0369 51.8398 52.2501 55.0282 52.2501 58.5V62.6667C52.2501 63.4256 52.0472 64.1371 51.6926 64.75H64.75C65.9006 64.75 66.8333 63.8173 66.8333 62.6667V60.5833C66.8333 53.246 61.1859 48.0833 54.3333 48.0833Z" fill="#ED4B4B"/>
</svg>
