<svg width="40" height="40" viewBox="0 0 40 40" fill="none" xmlns="http://www.w3.org/2000/svg">
<path d="M15.0026 28.3333H9.34328C7.2459 28.3333 6.19721 28.3333 5.97657 28.1705C5.72868 27.9875 5.66811 27.8795 5.64127 27.5726C5.61738 27.2994 6.26012 26.2477 7.54562 24.1443C8.87286 21.9726 9.99986 18.8104 9.99986 14.3333C9.99986 11.858 11.0534 9.48401 12.9288 7.73367C14.8042 5.98333 17.3477 5 19.9999 5C22.652 5 25.1956 5.98333 27.0709 7.73367C28.9463 9.48401 29.9999 11.858 29.9999 14.3333C29.9999 18.8104 31.1269 21.9726 32.4541 24.1443C33.7396 26.2477 34.3823 27.2994 34.3584 27.5726C34.3316 27.8795 34.271 27.9875 34.0231 28.1705C33.8025 28.3333 32.7538 28.3333 30.6564 28.3333H24.9999M15.0026 28.3333L14.9999 30C14.9999 32.7614 17.2384 35 19.9999 35C22.7613 35 24.9999 32.7614 24.9999 30V28.3333M15.0026 28.3333H24.9999" stroke="#ED4B4B" stroke-width="3" stroke-linecap="round" stroke-linejoin="round"/>
</svg>
