<svg width="38" height="38" viewBox="0 0 38 38" fill="none" xmlns="http://www.w3.org/2000/svg">
<path d="M30.597 14.9913C30.597 14.9913 29.7373 25.6551 29.2385 30.147C29.001 32.2924 27.6758 33.5496 25.505 33.5892C21.3741 33.6636 17.2384 33.6683 13.1091 33.5812C11.0207 33.5385 9.7176 32.2655 9.48485 30.1581C8.98293 25.6266 8.12793 14.9913 8.12793 14.9913" stroke="#E81E1E" stroke-width="2" stroke-linecap="round" stroke-linejoin="round"/>
<path d="M32.7877 9.87952H5.9375" stroke="#E81E1E" stroke-width="2" stroke-linecap="round" stroke-linejoin="round"/>
<path d="M27.6144 9.87952C26.3715 9.87952 25.3012 9.00077 25.0573 7.78319L24.6726 5.85786C24.4351 4.96961 23.6307 4.35527 22.714 4.35527H16.0117C15.095 4.35527 14.2907 4.96961 14.0532 5.85786L13.6684 7.78319C13.4246 9.00077 12.3542 9.87952 11.1113 9.87952" stroke="#E81E1E" stroke-width="2" stroke-linecap="round" stroke-linejoin="round"/>
</svg>
