<svg id="New_Layer" data-name="New Layer" xmlns="http://www.w3.org/2000/svg" viewBox="0 0 275.53 316.03"><defs><style>.cls-1{fill:#010101;}.cls-2{fill:#ed1f25;}.cls-3{fill:#020202;}.cls-4{fill:#fdfdfd;}.cls-5{fill:#fcfcfc;}.cls-6{fill:#fdfdfe;}.cls-7{fill:#fff;}.cls-8{fill:#020101;}</style></defs><path class="cls-1" d="M381.51,222.74c.1,5.47.29,10.94.3,16.41q0,45.07,0,90.15c0,14.12-8.12,25.51-21.68,29.56-3,.9-3.27,2.12-3.25,4.71.12,14.28,0,28.56.13,42.84,0,3.26-.5,4.63-4.24,4.56-10.07-.18-10.07,0-10.07-10.14,0-12.12-.08-24.24.05-36.36,0-3-.32-4.36-3.91-4.35-11.55,0-11.55-.14-11.55,11.59,0,6.81-.08,13.61,0,20.42,0,2.44-.53,3.45-3.29,3.56-11,.41-11,.52-11-10.62,0-7.14-.09-14.28,0-21.42.05-2.44-.45-3.42-3.22-3.51C298,359.73,298,359.62,298,371.38c0,6.65,0,6.65-6.88,6.66-7.85,0-7.85,0-7.86-7.69,0-10.21,0-10.05-10.4-10.22-3.6-.06-4.85.7-4.72,4.58.31,10,0,19.92.15,29.88,0,2.47-.47,3.39-3.23,3.46-11.25.29-11.25.41-11.25-10.9,0-7.63-.09-15.27.05-22.91.06-2.84-.5-4.06-3.78-4.11-12.91-.18-12.91-.32-12.91,12.72,0,12.29-.08,24.57,0,36.86,0,3-.43,4.33-4,4.31-10.78-.07-10.78.11-10.78-10.86,0-13-.1-25.9.07-38.85.05-3.18-.7-4.18-4-4.19-12.81,0-12.81-.17-12.81,12.46,0,7.8-.15,15.61.06,23.41.07,2.84-.7,3.65-3.56,3.71-10.72.22-10.72.33-10.71-10.41,0-8.64-.08-17.27.05-25.9,0-2.46-.37-3.67-3.15-4.47-14.64-4.22-22.49-18.47-22-31,.79-19.73.2-39.51.24-59.27,0-1.92-.63-4,1.08-5.65,7.48-5.52,15.88-9.49,23.89-14.11,12.34-7.11,24.33-14.81,37-21.42,6-3.13,7.42-2.84,10.57,3.08,6.84,12.87,13.09,26,19.6,39.07,1,1.94,2.56,4.32-.83,5.82a27.29,27.29,0,0,1-7.43.5q-23.16,0-46.32,0a18.23,18.23,0,0,0-4.94.38,1.88,1.88,0,0,0-1.56,1.7,2,2,0,0,0,1.49,2.28,15.16,15.16,0,0,0,4.93.48q70.22,0,140.44-.05c2.25,0,6,1,6-2.38.05-3.55-3.76-2.32-5.94-2.34-14.77-.13-29.55-.06-44.32-.08a31.89,31.89,0,0,1-7.43-.41c-2.91-1.06-2.05-2.58-.26-3.82a80.09,80.09,0,0,1,7.43-5c25.2-13.66,50-28.07,74.72-42.52C376.71,223.09,378.79,221.15,381.51,222.74Z" transform="translate(-166.33 -97.98)"/><path class="cls-2" d="M381.51,222.74c-9.31,3.48-17.33,9.32-25.93,14.11-16.7,9.3-33.12,19.12-49.82,28.42a115.42,115.42,0,0,0-14.48,9c-4.67,2.49-27.56,2.45-32.06-.06-7-15.66-15.13-30.79-22.87-46.09-1.38-2.73-3.38-1.81-5.38-.65-17.27,10-34.49,20.11-51.87,29.92-3.67,2.07-6.95,5.12-11.44,5.6q-.12-11.71-.25-23.43c-.23-2.38,1.89-2.87,3.25-3.85,4-2.88,8.62-4.83,12.57-7.83,9.86-5.33,19.62-10.85,29-17,9.65-3.86,17.93-10.24,27.19-14.83,1.58-.78,3-2.15,5-1.58,9.92,17.64,20.35,35,30,52.75.56,1,1.19,2,1.75,3,1.67,3.07,3.69,3.71,6.89,1.82,12.86-7.6,25.83-15,38.76-22.5q21.35-12.33,42.7-24.64c5.89-2.77,11.24-6.53,17.14-9.29,6.83-2.19,12.35-6.82,18.64-10,2.25-1.15,1.11-2.75.3-4.18q-4.06-7.14-8.18-14.24c-.89-1.54-1.9-3-2-5.19,10.69,2,20.93,5.34,31.31,8.08,5.92,1.57,11.75,3.47,17.66,5.1,1.91.52,2.91,1.21,2.31,3.41-4.39,16.06-8.72,32.14-13.44,49.58-4.59-7.52-8.69-13.8-12.3-20.34-1.78-3.21-3.28-3.91-6.47-1.84C400.35,211.89,390.43,216.48,381.51,222.74Z" transform="translate(-166.33 -97.98)"/><path class="cls-3" d="M381.68,195.66c-4.71,4.63-10.51,7.4-16.53,9.81-2.48-2.2-1.79-5.2-1.8-7.92-.07-21.24,0-42.48,0-63.72a38.46,38.46,0,0,0-.34-7c-1.09-6-5.14-9.68-11.18-10.22-1.65-.15-3.31-.1-5-.1H201.43c-1.49,0-3,0-4.48.07-6.49.47-10.67,4.36-11.63,10.87a47.54,47.54,0,0,0-.24,7q0,43,0,86.12c0,2.79.37,5.69-1.45,8.17-3.31,3.61-8.08,4.95-12,7.68-1.44,1-3.31,1.49-4.25,3.17-1.44-1.36-.82-3.13-.82-4.71q-.06-54.27,0-108.54c0-14.32,14-28.3,28.24-28.3,52.95,0,105.9-.21,158.85.13,15.42.1,27.49,12.67,27.94,26.79C382.36,148.51,381.73,172.1,381.68,195.66Z" transform="translate(-166.33 -97.98)"/><path class="cls-4" d="M274.1,308.3c-24.9,0-49.81,0-74.72-.1-1.31,0-4.7,1.93-4-2.05.48-2.61-2.53-6.88,4.07-6.85q74.72.36,149.44,0c6.25,0,3.57,3.86,4,6.51.75,4.28-2.68,2.39-4.12,2.4C323.92,308.34,299,308.3,274.1,308.3Z" transform="translate(-166.33 -97.98)"/><path class="cls-5" d="M259.22,274.25l32.06.06c6.45.12,12.91.31,19.37.33q19.41.09,38.82,0c2.32,0,3.51.21,3.57,3.08.09,3.64-.56,5.05-4.75,5-41.48-.18-83-.11-124.43-.11-8.13,0-16.27-.23-24.38.1-3.9.16-3.91-1.61-4.18-4.63-.37-4,2-3.43,4.25-3.43q27.12,0,54.25,0C255.61,274.63,257.42,274.38,259.22,274.25Z" transform="translate(-166.33 -97.98)"/><path class="cls-6" d="M274.28,325.23c24.74,0,49.48,0,74.22-.07,3.12,0,4.59.24,4.61,4.09,0,4-1.79,4-4.77,4q-74.2-.09-148.43,0c-3.2,0-4.55-.37-4.63-4.13-.08-4.11,1.88-3.95,4.79-3.95C224.8,325.26,249.54,325.23,274.28,325.23Z" transform="translate(-166.33 -97.98)"/><path class="cls-7" d="M183.61,228.75c0-33.52-.14-67-.09-100.56,0-7.69,5.87-13.22,13.58-13.23H350.45c9.11,0,14.42,5.25,14.44,14.37q0,35.34,0,70.69c0,1.82.16,3.64.25,5.46-10.9,7.52-22.73,13.47-34.1,20.21-15.64,9.27-31.56,18.05-47.22,27.3-4,2.36-6.05,2.74-8.67-2-9.81-17.8-20.14-35.32-30.25-53a19.71,19.71,0,0,1-1.1-2.73c-1.75-3.62-.85-7.48-.91-11.23-.16-10.07-.81-10.83-10.63-10.83-6.45,0-12.9-.12-19.34.05-5.28.15-6.27,1.31-6.14,6.63s.35,10.93,0,16.35c-.4,6.16,0,11.76,5.66,15.6C203.39,218.45,193.56,223.7,183.61,228.75Z" transform="translate(-166.33 -97.98)"/><path class="cls-8" d="M212.44,211.85c-5.2-1.36-8-4.07-7.59-10.1.55-7.92.17-15.9.18-23.85,0-4.24,2-6.25,6.34-6.21,8.78.1,17.57.17,26.35,0,4.27-.1,6.31,2.35,6.43,5.82.21,5.92.69,11.89-.34,17.81-7.93,4.43-15.95,8.7-23.73,13.37A48.13,48.13,0,0,1,212.44,211.85Z" transform="translate(-166.33 -97.98)"/><path class="cls-3" d="M274.2,162.82H210c-6.86,0-7.57-.74-7.56-7.79,0-7.63,0-15.26,0-22.89,0-5.54,1.55-7,7.07-7,43.13,0,86.26.07,129.38-.14,4.43,0,7.57,2,7.76,7.4.28,8,.16,15.92,0,23.88-.07,4.43-2.6,6.58-7.32,6.58Z" transform="translate(-166.33 -97.98)"/><path class="cls-3" d="M274.09,171.71c4.48,0,9,0,13.43,0,4.25,0,6.39,2.13,6.41,6.31,0,8.79-.06,17.57,0,26.36,0,4.23-2.48,6.14-6.09,6.23-9.11.25-18.24.19-27.36,0-3.89-.07-6-2.52-6.09-6.38-.1-8.62-.13-17.25,0-25.87.08-4.66,2.4-6.64,7.21-6.67C265.8,171.69,269.94,171.71,274.09,171.71Z" transform="translate(-166.33 -97.98)"/><path class="cls-1" d="M304.1,191.21c0-4.48-.06-9,0-13.42.07-3.92,2.1-6.06,6.1-6.07,8.95,0,17.89.06,26.84,0,4.19,0,6.15,2.2,6.22,6,.16,9.11.06,18.22,0,27.33,0,3.72-2.31,5.54-5.62,5.61-9.28.19-18.57.28-27.84,0-3.55-.12-6-2.25-5.8-6.45S304.1,195.51,304.1,191.21Z" transform="translate(-166.33 -97.98)"/></svg>