<svg width="150" height="102" viewBox="0 0 150 102" fill="none" xmlns="http://www.w3.org/2000/svg">
<g clip-path="url(#clip0_2071_2617)">
<path d="M122.709 53.4688V48.1411C122.709 47.8595 122.75 47.7556 123.054 47.7579C125.837 47.7933 128.622 47.8141 131.41 47.8202C131.709 47.8202 131.732 47.9356 131.732 48.1965V62.1852C131.725 62.3209 131.747 62.4565 131.797 62.5828C131.847 62.7091 131.923 62.823 132.021 62.917C137.794 68.7649 143.564 74.6204 149.329 80.4837L149.619 80.7722C149.543 80.9038 149.437 80.8461 149.352 80.8461H145.389C145.276 80.8488 145.164 80.8259 145.061 80.7792C144.958 80.7324 144.866 80.663 144.794 80.576C139.129 74.8051 133.451 69.0342 127.759 63.2632C121.831 57.2476 115.908 51.2282 109.989 45.2048C109.721 44.9371 109.615 44.974 109.372 45.2048C97.8894 56.9975 86.4073 68.7856 74.9252 80.5691C74.8497 80.6541 74.7564 80.7212 74.6519 80.7656C74.5475 80.8099 74.4345 80.8303 74.3212 80.8253H62.7174C62.7541 80.6499 62.8873 80.576 62.9838 80.4791C70.3599 72.983 77.7368 65.49 85.1144 58.0001L100.066 42.7972C100.14 42.7191 100.229 42.658 100.328 42.6181C100.427 42.5783 100.534 42.5606 100.641 42.5664H111.686C111.8 42.563 111.913 42.5853 112.017 42.6317C112.121 42.678 112.214 42.7472 112.288 42.8341L122.424 53.1641C122.507 53.2763 122.603 53.3785 122.709 53.4688Z" fill="#E81E1E"/>
<path d="M95.786 41.8716C95.2831 42.4233 94.7871 43.0258 94.229 43.5752C81.7824 55.6741 69.332 67.7769 56.8777 79.8835C56.7908 79.9735 56.6859 80.0438 56.5699 80.09C56.4539 80.1361 56.3295 80.157 56.2049 80.1513C52.2535 80.1405 48.3014 80.1405 44.3485 80.1513H43.903C44.0293 80.0174 44.105 79.9205 44.1923 79.8466L83.4427 42.0886C83.4955 42.0262 83.5609 41.9758 83.6346 41.9408C83.7082 41.9058 83.7884 41.8869 83.8699 41.8854H95.8113C95.8205 41.8877 95.8457 41.9016 95.786 41.8716Z" fill="#E81E1E"/>
<path d="M103.761 64.0804V62.0029C103.761 61.772 103.826 61.7328 104.042 61.7328H108.255C108.485 61.7328 108.522 61.7951 108.522 62.0029V66.2364C108.522 66.4673 108.462 66.5065 108.255 66.5065H104.053C103.823 66.5065 103.773 66.4442 103.787 66.2364C103.771 65.5162 103.761 64.8075 103.761 64.0804Z" fill="#FE6600"/>
<path d="M108.52 70.8693V72.9468C108.52 73.1777 108.455 73.2169 108.253 73.2169C106.848 73.2061 105.443 73.2061 104.039 73.2169C103.81 73.2169 103.773 73.1523 103.773 72.933C103.782 71.5218 103.782 70.1114 103.773 68.7017C103.773 68.4709 103.837 68.434 104.053 68.434C105.455 68.4432 106.86 68.4432 108.267 68.434C108.485 68.434 108.533 68.4963 108.533 68.7156C108.513 69.4312 108.52 70.1514 108.52 70.8693Z" fill="#FE6600"/>
<path d="M112.945 73.2215C112.315 73.2215 111.691 73.2007 111.075 73.2215C110.71 73.2376 110.579 73.1684 110.589 72.7598C110.621 71.4625 110.618 70.1675 110.589 68.8702C110.589 68.4801 110.701 68.4085 111.048 68.4247C112.322 68.4462 113.598 68.4462 114.878 68.4247C115.241 68.4247 115.374 68.4778 115.365 68.8864C115.331 70.1837 115.335 71.4787 115.365 72.776C115.365 73.1638 115.253 73.2376 114.906 73.2215C114.247 73.2007 113.592 73.2215 112.945 73.2215Z" fill="#FE6600"/>
<path d="M112.931 66.5088H110.864C110.635 66.5088 110.598 66.4442 110.598 66.2411V62.0052C110.598 61.7744 110.662 61.7374 110.878 61.7374H115.092C115.31 61.7374 115.358 61.7998 115.358 62.0052V66.2411C115.358 66.4719 115.294 66.5227 115.078 66.5088C114.362 66.5042 113.647 66.5088 112.931 66.5088Z" fill="#FE6600"/>
<path d="M30.4664 75.7238H0.713966C0.574497 75.7385 0.433744 75.7133 0.307836 75.6513C0.181929 75.5892 0.0759606 75.4927 0.0020752 75.3729V73.7571H30.5009C30.5606 74.3411 30.6111 74.9274 30.6777 75.5091C30.6961 75.7146 30.6088 75.7238 30.4664 75.7238Z" fill="#FE6600"/>
<path d="M41.0438 82.0187C41.0488 82.7479 40.7675 83.4496 40.2611 83.9716C39.7547 84.4936 39.0639 84.7939 38.3386 84.8072H6.06471C4.30565 84.8072 3.14825 83.6392 3.14825 81.871V79.7288C3.14032 79.3675 3.2033 79.0081 3.33359 78.6712C3.46388 78.3343 3.65892 78.0265 3.90758 77.7654C4.15624 77.5043 4.45364 77.295 4.78278 77.1495C5.11193 77.0039 5.46638 76.925 5.82588 76.9172H38.1136C38.3441 76.9124 38.5746 76.9279 38.8025 76.9634C39.4234 77.0775 39.9862 77.4034 40.3958 77.8862C40.8053 78.369 41.0367 78.9791 41.0507 79.6134C41.0438 80.4213 41.0438 81.22 41.0438 82.0187Z" fill="#0A2785"/>
<path d="M27.3249 76.9149H16.851V75.7307H27.3203C27.3249 76.1254 27.3249 76.5202 27.3249 76.9149Z" fill="black"/>
<path d="M21.5747 59.2397H20.0958V57.9239C20.0958 57.7508 20.0567 57.6931 19.8661 57.6931C19.3311 57.6931 19.3311 57.6931 19.3449 57.1553C19.3449 56.9244 19.2369 56.6197 19.3954 56.4743C19.5538 56.3289 19.8271 56.4374 20.0522 56.435H22.0156C22.2062 56.435 22.259 56.4928 22.2452 56.6659V57.4946C22.2452 57.6377 22.2131 57.6885 22.0569 57.6908C21.5586 57.6908 21.5586 57.7093 21.5586 58.2286L21.5747 59.2397Z" fill="#FE6600"/>
<path d="M24.489 59.2397H23.4211V56.6659C23.4211 56.4951 23.4556 56.4351 23.637 56.4351C23.8548 56.4535 24.0737 56.4535 24.2915 56.4351C24.4729 56.4212 24.5211 56.4905 24.5073 56.6659C24.4729 57.5246 24.489 58.381 24.489 59.2397Z" fill="#FE6600"/>
<path d="M14.1618 61.3929L14.0952 61.3263V61.2942C14.1208 61.3247 14.1431 61.3578 14.1618 61.3929Z" fill="#FEFEFE"/>
<path d="M6.99482 82.9836C6.51007 83.008 6.03118 82.8684 5.63452 82.5873C5.23787 82.3061 4.9463 81.8996 4.80633 81.4324C4.68913 80.9873 4.71739 80.5162 4.88692 80.0885C5.05645 79.6608 5.35828 79.2992 5.74786 79.0571C6.13849 78.8127 6.59908 78.7064 7.05664 78.7549C7.51421 78.8034 7.94259 79.004 8.27392 79.3249C8.34677 79.4022 8.43535 79.4629 8.53363 79.5027C8.63191 79.5426 8.73758 79.5606 8.84344 79.5557H34.9308C35.0229 79.5604 35.1149 79.5447 35.2002 79.5096C35.2856 79.4744 35.3622 79.4208 35.4245 79.3526C35.7212 79.0612 36.097 78.8646 36.5046 78.7875C36.9122 78.7105 37.3333 78.7564 37.715 78.9195C38.0967 79.0826 38.4219 79.3556 38.6495 79.7041C38.8771 80.0526 38.997 80.461 38.9942 80.8779C38.9913 81.2948 38.8658 81.7015 38.6334 82.0468C38.4009 82.3921 38.0721 82.6606 37.6882 82.8184C37.3043 82.9761 36.8825 83.0162 36.476 82.9335C36.0695 82.8507 35.6965 82.6489 35.4039 82.3534C35.3475 82.2923 35.2782 82.2446 35.2011 82.2138C35.1241 82.1831 35.0411 82.17 34.9583 82.1757H8.78603C8.69834 82.1706 8.6106 82.1851 8.52918 82.2182C8.44776 82.2514 8.37469 82.3023 8.31526 82.3673C7.96995 82.7352 7.49727 82.9559 6.99482 82.9836Z" fill="#FE6600"/>
<path d="M10.9539 44.7317C10.9741 44.7409 10.996 44.7456 11.0182 44.7455V44.7247C11.0159 44.7094 11.0159 44.6939 11.0182 44.6786L10.9539 44.7317ZM10.9539 44.7317C10.9741 44.7409 10.996 44.7456 11.0182 44.7455V44.7247C11.0159 44.7094 11.0159 44.6939 11.0182 44.6786L10.9539 44.7317ZM10.9539 44.7317C10.9741 44.7409 10.996 44.7456 11.0182 44.7455V44.7247C11.0159 44.7094 11.0159 44.6939 11.0182 44.6786L10.9539 44.7317ZM10.9539 44.7317C10.9741 44.7409 10.996 44.7456 11.0182 44.7455V44.7247C11.0159 44.7094 11.0159 44.6939 11.0182 44.6786L10.9539 44.7317ZM14.1 61.2942C14.0977 61.3049 14.0977 61.3159 14.1 61.3265L14.1666 61.3935C14.1462 61.3592 14.124 61.326 14.1 61.2942ZM10.9539 44.7317C10.9741 44.7409 10.996 44.7456 11.0182 44.7455V44.7247C11.0159 44.7094 11.0159 44.6939 11.0182 44.6786L10.9539 44.7317ZM14.1 61.2942C14.0977 61.3049 14.0977 61.3159 14.1 61.3265L14.1666 61.3935C14.1462 61.3592 14.124 61.326 14.1 61.2942ZM30.3862 72.4367C30.2254 70.5323 30.0693 68.621 29.9062 66.7143C29.7271 64.5675 29.5411 62.4461 29.3712 60.3085C29.3161 59.6276 28.9371 59.2513 28.2597 59.249H24.4752C24.1305 59.1221 23.7521 59.1221 23.4074 59.249H21.5863C21.2166 59.0782 20.8308 59.1982 20.4542 59.1682C20.3939 59.1578 20.3322 59.1596 20.2727 59.1735C20.2131 59.1873 20.1569 59.213 20.1074 59.249H18.6262C17.9648 59.249 17.602 59.6091 17.602 60.2647V65.634C17.602 65.7401 17.6617 65.8833 17.4413 65.8786H15.5743C15.448 65.8786 15.4135 65.844 15.4227 65.7148C15.4503 65.4447 15.4549 65.1769 15.4709 64.9091C15.5965 62.9085 15.7212 60.9026 15.8452 58.8912C15.9509 57.2261 16.0542 55.5618 16.1553 53.8982C16.2793 51.8945 16.4056 49.8724 16.5296 47.8826C16.6536 45.8928 16.773 43.9584 16.8924 41.9778C17.0164 39.9541 17.1427 37.9289 17.2713 35.9021C17.3747 34.2101 17.4849 32.5181 17.5882 30.8237C17.6801 29.3325 17.7628 27.8436 17.8569 26.3478C17.3749 26.6184 16.8545 26.813 16.3137 26.9249C16.2999 27.5758 16.2632 28.2291 16.1897 28.8778C16.19 29.4181 16.1555 29.9578 16.0864 30.4936C16.0864 30.6783 16.0864 30.8676 16.068 31.0546C16.0336 31.5486 16.0381 32.0472 15.9624 32.5412C15.9057 33.6353 15.8452 34.7287 15.7809 35.8213C15.7121 37.0194 15.634 38.2174 15.5513 39.4155C15.5433 39.5388 15.5272 39.6614 15.5031 39.7825C15.5008 40.3333 15.4686 40.8835 15.4066 41.4307C15.4066 41.5069 15.3928 41.583 15.3883 41.6615C15.3856 42.1427 15.3588 42.6235 15.3079 43.102C15.2344 44.3546 15.1617 45.6073 15.0897 46.86C15.0178 48.0419 14.9412 49.2222 14.8601 50.401C14.8525 50.5433 14.8371 50.6851 14.8141 50.8258C14.7866 51.8322 14.7131 52.834 14.6327 53.8382C14.5799 54.7754 14.5294 55.7172 14.4697 56.6521C14.3717 58.2295 14.2722 59.8038 14.1712 61.375C14.1145 62.3522 14.054 63.3248 13.9897 64.2928C13.9622 64.7545 13.9277 65.2161 13.9094 65.6917C13.9094 65.8232 13.8703 65.8717 13.7302 65.8694H8.52195C8.16371 65.8879 8.15223 65.8856 8.20045 65.5278C8.45306 63.5949 8.70796 61.6605 8.96516 59.7245L9.19481 58.0856C9.30044 57.2361 9.40837 56.3897 9.5186 55.5464C9.53013 55.5102 9.54554 55.4754 9.56453 55.4425C9.58749 54.75 9.71839 54.0852 9.79417 53.4065C10.0238 51.5275 10.2879 49.6762 10.5382 47.811C10.5836 47.302 10.6557 46.7958 10.7541 46.2944C10.777 45.7566 10.8781 45.2487 10.9447 44.727L11.9781 36.9248L12.3547 34.127C12.4557 33.3214 12.5522 32.4904 12.6601 31.6709L13.3123 26.7033C13.3284 26.6017 13.3123 26.4886 13.411 26.4194C12.8598 26.0896 12.3847 25.6458 12.0171 25.1174C11.6007 28.2537 11.1835 31.3931 10.7656 34.5356C10.3981 37.3379 10.0315 40.1411 9.66557 42.945L8.59774 50.9296C8.26705 53.4458 7.9379 55.965 7.61027 58.4872C7.29107 60.9018 6.96957 63.3002 6.65726 65.7078C6.63889 65.8556 6.59296 65.8948 6.44599 65.8948H2.96232C2.97895 65.871 2.99429 65.8464 3.00824 65.8209H2.95313C2.72349 65.8325 2.49385 65.7609 2.28946 65.8948H-0.00695801V73.7871C0.167875 73.8842 0.371205 73.9161 0.567148 73.8772H30.2094C30.3141 73.886 30.4183 73.8547 30.501 73.7894C30.4689 73.3416 30.4344 72.8961 30.4 72.446L30.3862 72.4367ZM23.0973 61.0311H25.3938C25.6004 61.0311 25.6625 61.0726 25.6625 61.3012V65.9848C25.6625 66.2157 25.5867 66.2526 25.3938 66.2526H20.7665C20.5368 66.2526 20.5001 66.1695 20.5001 65.9571V61.3196C20.5001 61.0703 20.5805 61.0218 20.8055 61.0288C21.5519 61.0311 22.3303 61.0311 23.0973 61.0311ZM16.2425 26.9618L16.2885 26.9387H16.254C16.248 26.9451 16.244 26.9531 16.2425 26.9618ZM14.1069 61.3173L14.1734 61.3843C14.1542 61.3498 14.1327 61.3167 14.1091 61.285L14.0954 61.3173H14.1069ZM11.0205 44.7247C11.0182 44.7094 11.0182 44.6939 11.0205 44.6786L10.9424 44.7317C10.9626 44.7409 10.9845 44.7456 11.0067 44.7455C11.0137 44.7405 11.0186 44.7331 11.0205 44.7247ZM14.1 61.2942C14.0977 61.3049 14.0977 61.3159 14.1 61.3265L14.1666 61.3935C14.1462 61.3592 14.124 61.326 14.1 61.2942ZM10.9539 44.7317C10.9741 44.7409 10.996 44.7456 11.0182 44.7455V44.7247C11.0159 44.7094 11.0159 44.6939 11.0182 44.6786L10.9539 44.7317ZM14.1 61.2942C14.0977 61.3049 14.0977 61.3159 14.1 61.3265L14.1666 61.3935C14.1462 61.3592 14.124 61.326 14.1 61.2942ZM10.9539 44.7317C10.9741 44.7409 10.996 44.7456 11.0182 44.7455V44.7247C11.0159 44.7094 11.0159 44.6939 11.0182 44.6786L10.9539 44.7317ZM10.9539 44.7317C10.9741 44.7409 10.996 44.7456 11.0182 44.7455V44.7247C11.0159 44.7094 11.0159 44.6939 11.0182 44.6786L10.9539 44.7317ZM10.9539 44.7317C10.9741 44.7409 10.996 44.7456 11.0182 44.7455V44.7247C11.0159 44.7094 11.0159 44.6939 11.0182 44.6786L10.9539 44.7317ZM10.9539 44.7317C10.9741 44.7409 10.996 44.7456 11.0182 44.7455V44.7247C11.0159 44.7094 11.0159 44.6939 11.0182 44.6786L10.9539 44.7317Z" fill="#0A2785"/>
<path d="M85.0685 37.1855C85.0409 37.3356 84.9238 37.3979 84.8388 37.4764C78.8498 43.3012 72.8592 49.1237 66.867 54.9438L52.7303 68.674C52.6805 68.7346 52.6181 68.7834 52.5474 68.8169C52.4768 68.8505 52.3996 68.8679 52.3215 68.8679H42.0771C42.1116 68.7364 42.2149 68.681 42.2907 68.6002L60.4646 51.1189C60.7838 50.8142 60.7861 50.8096 60.4646 50.5141C60.2264 50.2585 59.9684 50.0223 59.693 49.8077C59.3761 49.6715 59.2337 49.3761 59.0431 49.1152C59.0419 49.1131 59.0413 49.1107 59.0413 49.1083C59.0413 49.1059 59.0419 49.1035 59.0431 49.1014H59.0753C59.1034 49.0705 59.1266 49.0355 59.1442 48.9975C59.3738 48.3811 59.4909 48.305 60.1339 48.4042C60.2625 48.6074 60.0949 48.7343 59.9892 48.8497C59.6586 49.2214 59.6586 49.3114 60.0444 49.6069C60.0444 49.6207 60.0719 49.63 60.0857 49.6461L60.0283 49.6761C60.2166 49.8724 60.4049 50.0709 60.6001 50.2671C60.9905 50.6572 60.9905 50.6503 61.3602 50.2509C61.4475 50.1517 61.4635 50.0893 61.3602 49.9832L60.5588 49.2583V49.2999C60.5588 49.2999 60.5588 49.2999 60.545 49.286V49.2514C60.55 49.1846 60.5744 49.1208 60.6153 49.0678C60.6561 49.0149 60.7115 48.9752 60.7746 48.9536C60.777 48.9635 60.777 48.9738 60.7746 48.9836L61.5761 49.7869C61.7437 49.967 61.8172 49.7869 61.9022 49.7015L66.6787 45.1425L74.7552 37.3748C74.7972 37.3213 74.85 37.2773 74.9102 37.2459C74.9704 37.2144 75.0366 37.1962 75.1043 37.1925C78.4173 37.1894 81.7387 37.1871 85.0685 37.1855Z" fill="#FE6600"/>
<path d="M59.9779 15.787C59.8653 16.4287 59.7482 17.0727 59.638 17.7191C59.0685 17.51 58.4452 17.5019 57.8705 17.6961C57.2958 17.8903 56.8039 18.2754 56.4758 18.7878C56.2701 19.1142 56.1359 19.4807 56.082 19.8632C56.0282 20.2457 56.056 20.6353 56.1635 21.0062C55.1714 20.0367 54.1748 19.0718 53.1781 18.1023L46.6425 11.6527C46.5897 11.5996 46.5415 11.5396 46.491 11.4842C46.5865 11.4772 46.6825 11.4772 46.778 11.4842C47.5176 11.5969 48.2737 11.4768 48.9427 11.1404C49.6116 10.8039 50.1606 10.2677 50.5143 9.60515C50.8494 8.9323 50.9985 8.18128 50.946 7.43066H50.9667C51.0333 7.50915 51.1114 7.5784 51.1757 7.6615C53.8181 10.8178 56.4574 13.978 59.0937 17.142C59.1557 17.2158 59.1971 17.322 59.3234 17.3567C59.3716 17.0889 59.4198 16.8188 59.4658 16.551L59.6173 15.7454L59.9779 15.787Z" fill="#0A2785"/>
<path d="M19.8455 22.1297C19.8389 22.1736 19.8257 22.2161 19.8065 22.256C19.8015 22.1723 19.8069 22.0882 19.8226 22.0057C19.8336 22.0464 19.8412 22.0879 19.8455 22.1297Z" fill="black"/>
<path d="M19.8203 22.6844C19.8048 23.1815 19.7276 23.6747 19.5906 24.1525C19.2429 25.0518 18.6299 25.8226 17.8339 26.3616C17.3516 26.6316 16.8312 26.8262 16.2907 26.9387H16.2562C15.8252 27.001 15.3875 27.001 14.9564 26.9387C14.4657 26.8554 13.9898 26.6998 13.5441 26.4771L13.4523 26.4147L13.4178 26.3893C12.8661 26.0603 12.3908 25.6164 12.0239 25.0874C11.7016 24.5651 11.4803 23.9864 11.3717 23.3815C11.3258 23.0041 11.312 22.6233 11.3304 22.2435C11.3508 22.2002 11.3654 22.1544 11.374 22.1073C11.6932 20.3206 12.7105 19.1549 14.4398 18.6194C15.4774 18.3193 16.59 18.43 17.5491 18.9287C17.9665 19.1635 18.3453 19.4617 18.6721 19.8128C18.9352 20.0938 19.1663 20.4035 19.361 20.7361C19.5773 21.2201 19.7317 21.7297 19.8203 22.2527C19.8134 22.4005 19.818 22.5482 19.8203 22.6844Z" fill="black"/>
<path d="M16.2884 26.9387L16.2424 26.9617C16.2402 26.955 16.2402 26.9477 16.2424 26.941L16.2884 26.9387Z" fill="black"/>
<path d="M43.8982 6.3757C43.8982 6.39648 43.8799 6.41725 43.8684 6.43803C43.6686 6.89714 43.5676 7.39352 43.5721 7.89461C42.9567 8.1393 42.3711 8.45093 41.7717 8.73485C40.5064 9.33272 39.2457 9.94906 37.9895 10.5539C37.3764 10.8239 36.777 11.0917 36.1891 11.4149L30.6019 14.0787L29.5226 14.5935C29.2983 14.6764 29.0841 14.7849 28.8842 14.9167C28.5336 15.0437 28.1935 15.198 27.8669 15.3783L22.9181 17.7352L22.0248 18.1715C21.6188 18.334 21.2231 18.5213 20.8398 18.7324L19.7743 19.2495C19.6159 19.3257 19.4459 19.3903 19.2921 19.4803C19.089 19.5516 18.8972 19.6519 18.7225 19.7781L18.6743 19.8312C18.3463 19.4805 17.9668 19.1824 17.5491 18.9471L17.6088 18.9171L34.1246 11.0317L43.788 6.41494L43.8913 6.36877L43.8982 6.3757Z" fill="#0A2786"/>
<path d="M50.5096 9.61433C50.155 10.2766 49.6055 10.8125 48.9363 11.1489C48.2671 11.4852 47.5108 11.6055 46.771 11.4933C46.6754 11.4864 46.5795 11.4864 46.484 11.4933C46.426 11.4491 46.3546 11.4263 46.2819 11.4287C45.8048 11.2549 45.3553 11.0123 44.9476 10.7085C44.6715 10.4416 44.4216 10.1486 44.2013 9.83362C44.0397 9.53749 43.9023 9.2287 43.7902 8.91027C43.7096 8.56885 43.6642 8.21998 43.6548 7.8692L43.5767 7.90152C43.5722 7.40043 43.6731 6.90405 43.8729 6.44493C43.8844 6.42416 43.8936 6.40338 43.9028 6.38261L43.9166 6.3526C44.1842 5.76086 44.5999 5.24903 45.1232 4.86709C45.6464 4.48515 46.2593 4.24617 46.9019 4.1735H46.9455C47.1795 4.15734 47.4143 4.15734 47.6482 4.1735H47.6942V4.24506C47.7378 4.26121 47.7814 4.27737 47.8251 4.28891C49.3476 4.55669 50.3282 5.4431 50.8104 6.9043C50.8678 7.07743 50.9046 7.25055 50.9528 7.42368V7.456C51 8.20236 50.8469 8.94776 50.5096 9.61433Z" fill="black"/>
<path d="M40.8073 12.6751L40.7361 12.6453H40.7889C40.7971 12.6537 40.8034 12.6639 40.8073 12.6751Z" fill="#0A2786"/>
<path d="M33.0339 16.3754L32.9719 16.3432L33.0087 16.3248C33.0172 16.33 33.0241 16.3375 33.0286 16.3464C33.0331 16.3554 33.0349 16.3654 33.0339 16.3754Z" fill="#0A2786"/>
<path d="M26.1355 19.6651L25.2284 20.1037L25.1687 20.0667L22.2063 18.31C22.1581 18.28 22.1145 18.25 22.0708 18.2177L22.0249 18.1785L22.9182 17.7422L22.9871 17.7837L26.0689 19.6304L26.1355 19.6651Z" fill="#FE6601"/>
<path d="M46.2774 11.4287C45.0235 12.0312 43.7743 12.6383 42.5204 13.2362L19.8501 24.0393C19.7652 24.0786 19.6733 24.1109 19.5837 24.1525C19.7208 23.6746 19.7979 23.1814 19.8134 22.6843L19.8823 22.652L25.2238 20.1128L26.1308 19.6742L26.4156 19.545C26.7601 19.3764 27.1045 19.2102 27.4536 19.0463L33.0316 16.3848L34.1201 15.8492L34.2717 15.7754C34.6896 15.6043 35.0982 15.4109 35.4957 15.196L40.7958 12.6729C41.1825 12.5151 41.5605 12.3363 41.9279 12.1374L42.0611 12.0728C42.4791 11.9004 42.8878 11.7065 43.2874 11.491L44.8949 10.7339L44.9431 10.7108C45.3507 11.0141 45.8002 11.256 46.2774 11.4287Z" fill="#0A2786"/>
<path d="M46.2383 2.10989C46.153 2.16796 46.064 2.22039 45.972 2.26686L10.7035 20.069C9.93651 20.4568 9.1695 20.8562 8.40709 21.2509C8.26031 21.0599 8.09149 20.8871 7.90417 20.7361L20.9226 14.1711L45.724 1.6459C45.8066 1.60435 45.8962 1.5628 45.9926 1.52356C46.0519 1.72784 46.1343 1.92458 46.2383 2.10989Z" fill="#FE6600"/>
<path d="M5.79836 25.1566L6.45514 25.2282C6.39084 26.0338 6.32654 26.8602 6.25765 27.6774C6.09537 29.5641 5.93155 31.4523 5.76621 33.3421C5.6269 34.9826 5.48758 36.6231 5.34826 38.2635C5.18522 40.1426 5.01758 42.04 4.85683 43.9283C4.71675 45.5788 4.59044 47.2316 4.43888 48.8797L3.94974 54.5168C3.7867 56.3958 3.63284 58.2748 3.47209 60.1538C3.31134 62.0328 3.14829 63.9095 2.98295 65.7886H3.02428C3.01085 65.815 2.9955 65.8405 2.97836 65.8647H2.28943C2.53438 62.9793 2.78086 60.0946 3.02888 57.2107C3.30598 54.0066 3.58308 50.8018 3.86018 47.5963C4.08982 44.8262 4.31946 42.0562 4.56518 39.2862C4.8109 36.5161 5.04514 33.7461 5.28626 30.976C5.46079 29.0485 5.62154 27.098 5.79836 25.1566Z" fill="#FE6600"/>
<path d="M6.47348 25.2512L6.44592 25.2351H6.45511L6.47348 25.2512Z" fill="#FE6600"/>
<path d="M61.3395 20.2098C61.3464 20.8333 61.1323 21.4389 60.7355 21.9181C60.3387 22.3973 59.7852 22.7189 59.174 22.8252C59.1005 22.8391 59.0293 22.8622 58.9444 22.8783H58.7147C58.325 22.8826 57.9392 22.8005 57.5846 22.6378C57.2301 22.4752 56.9156 22.236 56.6634 21.9373C56.4113 21.6386 56.2277 21.2877 56.1258 20.9096C56.0238 20.5315 56.0061 20.1354 56.0737 19.7496C56.1413 19.3638 56.2927 18.9978 56.5171 18.6774C56.7414 18.3571 57.0332 18.0904 57.3718 17.8963C57.7103 17.7023 58.0872 17.5856 58.4757 17.5545C58.8642 17.5235 59.2547 17.5789 59.6195 17.7168C60.7172 18.1993 61.3189 19.0187 61.3395 20.2098Z" fill="black"/>
<path d="M58.9558 22.8783C58.924 22.9061 58.8832 22.9214 58.841 22.9214C58.7988 22.9214 58.758 22.9061 58.7262 22.8783H58.9558Z" fill="black"/>
<path d="M8.82276 23.3839C8.42318 24.4988 7.65618 25.1405 6.46204 25.2306H6.45515L5.80756 25.1613C5.40361 25.0503 5.03346 24.84 4.73041 24.5495C4.42736 24.259 4.20092 23.8973 4.07146 23.497C3.91726 23.0173 3.91164 22.5018 4.05533 22.0188C4.19902 21.5359 4.48525 21.1082 4.87613 20.7923C5.26701 20.4765 5.74409 20.2874 6.24422 20.2502C6.74436 20.213 7.24395 20.3293 7.67685 20.5838C7.75952 20.6323 7.8376 20.6854 7.90649 20.7338C8.09404 20.8862 8.26355 21.0597 8.4117 21.2509C8.62081 21.5448 8.76775 21.8787 8.84343 22.232C8.90947 22.6138 8.90245 23.0047 8.82276 23.3839Z" fill="black"/>
<path d="M6.47348 25.2512L6.44592 25.2351H6.45511L6.47348 25.2512Z" fill="black"/>
<path d="M59.0984 14.2288C59.0893 14.2473 59.0817 14.2665 59.0754 14.2862C59.0683 14.2818 59.0627 14.2754 59.0593 14.2678L59.0984 14.2288Z" fill="#FE6601"/>
<path d="M60.1018 15.0552C60.0123 15.1429 59.9732 15.1499 59.886 15.0552C59.6334 14.7874 59.3532 14.5197 59.0983 14.238C59.0688 14.1888 59.0358 14.1417 58.9995 14.0972L48.0778 2.39841C48.2405 2.24575 48.3812 2.07092 48.4957 1.87903C49.4372 2.88317 50.3834 3.885 51.3203 4.89145C54.0301 7.79231 56.7383 10.6955 59.445 13.6009C59.5093 13.6702 59.5828 13.7325 59.6517 13.7971L60.1248 14.3327C60.4853 14.7043 60.4807 14.6997 60.1018 15.0552Z" fill="#FE6601"/>
<path d="M48.5624 1.62051C48.5417 1.70361 48.5165 1.78671 48.4958 1.86751C48.3812 2.05868 48.2406 2.23273 48.0779 2.38458L47.7035 2.56925C47.6818 2.59236 47.664 2.61887 47.6507 2.64774C47.4171 2.72394 47.1655 2.72394 46.9319 2.64774H46.9067C46.6541 2.52078 46.3509 2.45614 46.2499 2.10988C46.1371 1.92474 46.0477 1.72624 45.9835 1.51894C45.9835 0.766412 46.2637 0.293197 46.8286 0.0854432C46.989 0.0242906 47.1599 -0.00444983 47.3313 0.000867576C47.5028 0.00618498 47.6716 0.0454561 47.8279 0.116431C47.9843 0.187407 48.1252 0.288692 48.2426 0.414486C48.3599 0.54028 48.4514 0.688112 48.5119 0.849514C48.6034 1.09608 48.6202 1.36437 48.5601 1.62051H48.5624Z" fill="black"/>
<path d="M47.6919 2.57617V2.64047H47.6414C47.6542 2.61619 47.6713 2.59441 47.6919 2.57617Z" fill="black"/>
<path d="M59.3486 46.6061C59.2981 46.6869 59.243 46.7607 59.1304 46.7146C59.1304 43.9445 58.7355 30.0735 58.7332 27.3058V22.8829H58.9628C58.9605 27.098 59.3486 42.3979 59.3486 46.6061Z" fill="#FE6600"/>
<path d="M60.7379 49.0067C60.6575 49.0617 60.5989 49.1435 60.5725 49.2376V49.2745C60.5693 49.2735 60.5663 49.2717 60.5639 49.2693C60.5615 49.2669 60.5597 49.2639 60.5588 49.2607C60.4458 49.3956 60.3057 49.5049 60.1477 49.5815L60.0949 49.6069C60.0056 49.5357 59.9213 49.4586 59.8423 49.3761C59.8092 49.3481 59.7833 49.3126 59.7668 49.2724C59.7503 49.2322 59.7437 49.1887 59.7475 49.1454C59.7514 49.1021 59.7655 49.0604 59.7888 49.0238C59.8121 48.9872 59.8438 48.9568 59.8813 48.9352C60.0411 48.8222 60.152 48.6521 60.1913 48.4597C60.2269 48.352 60.2411 48.2384 60.233 48.1253C60.225 48.0122 60.1948 47.9018 60.1442 47.8004C60.0937 47.699 60.0238 47.6086 59.9385 47.5344C59.8532 47.4601 59.7541 47.4035 59.6471 47.3678C59.5875 47.3479 59.5259 47.3347 59.4634 47.3286C59.0936 47.2524 59.0247 47.1185 59.1396 46.7053L59.3692 46.5968C60.2051 46.6384 60.7861 47.0469 60.9216 47.7348C60.982 47.9479 60.9968 48.1713 60.9652 48.3906C60.9335 48.6098 60.856 48.8198 60.7379 49.0067Z" fill="#010101"/>
<path d="M59.0984 14.2288C59.0893 14.2473 59.0817 14.2665 59.0754 14.2862C59.0683 14.2818 59.0627 14.2754 59.0593 14.2678L59.0984 14.2288Z" fill="#010100"/>
<path d="M60.9377 15.1153C60.8659 15.3131 60.7353 15.484 60.5636 15.6046C60.3918 15.7252 60.1873 15.7897 59.9778 15.7893L59.6241 15.7316H59.6103C58.9834 15.3484 58.8112 14.9052 59.0776 14.2912C59.0838 14.2722 59.0915 14.2536 59.1005 14.2358C59.3692 14.5035 59.6356 14.7713 59.8882 15.0529C59.9778 15.1545 60.0145 15.1476 60.1041 15.0529C60.4853 14.6974 60.4876 14.7021 60.127 14.3096C59.9663 14.1365 59.8124 13.9588 59.654 13.7741C59.84 13.7006 60.0441 13.6869 60.2382 13.7349C60.4324 13.7828 60.6069 13.8901 60.7379 14.0419C60.876 14.179 60.9691 14.3553 61.0048 14.5471C61.0405 14.739 61.0171 14.9372 60.9377 15.1153Z" fill="black"/>
<path d="M59.2315 49.0967L59.7666 49.7292C58.9927 49.8585 58.3727 49.6369 57.9524 48.942C57.8931 48.857 57.8625 48.755 57.8652 48.6512C57.8642 48.605 57.8753 48.5593 57.8975 48.5187C57.9197 48.4782 57.9521 48.4443 57.9915 48.4204C58.0351 48.3961 58.086 48.3884 58.1348 48.3985C58.1837 48.4087 58.2273 48.4361 58.2578 48.4758C58.3635 48.5704 58.4714 48.665 58.5679 48.7666C58.7421 48.9537 58.9779 49.071 59.2315 49.0967Z" fill="#030303"/>
<path d="M2.97595 65.8001V65.8786C2.99221 65.8542 3.00678 65.8288 3.01958 65.8024L2.97595 65.8001ZM6.46651 25.2305H6.45503L6.48029 25.2466L6.46651 25.2305Z" fill="#FEFEFE"/>
<path d="M14.8072 50.8511C14.7773 51.8575 14.7061 52.8594 14.6257 53.8635L14.55 53.9074L9.83311 56.6936C9.67695 56.7813 9.69532 56.8459 9.80785 56.9613C10.4669 57.6308 11.1214 58.3025 11.7805 58.9789L14.0953 61.3172L14.1619 61.3842C14.1052 62.3614 14.0447 63.334 13.9804 64.302L13.9138 64.3389L11.2454 65.7839L11.0938 65.867H8.52185L8.62289 65.7909L8.70557 65.7401L13.7049 63.0578C13.8564 62.977 13.9345 62.9308 13.7715 62.7669C12.2604 61.228 10.7578 59.6891 9.2636 58.1502L9.20159 58.0901C9.30876 57.2407 9.41745 56.3943 9.52768 55.5509C9.53824 55.5144 9.55369 55.4794 9.57361 55.4471L9.64939 55.4055C11.2492 54.4498 12.8567 53.4934 14.4719 52.5362C14.6326 52.4439 14.5959 52.3769 14.4971 52.2684C13.9621 51.6913 13.4638 51.1027 12.9471 50.521L10.5886 47.8964L10.5243 47.8225C10.5687 47.3134 10.6408 46.8071 10.7402 46.3059L10.7907 46.359L10.9905 46.5737C12.2382 47.9725 13.4791 49.373 14.713 50.7749L14.8072 50.8511Z" fill="#FE6601"/>
<path d="M14.1618 61.3929L14.0952 61.3263V61.2942C14.1208 61.3247 14.1431 61.3578 14.1618 61.3929Z" fill="#FE6600"/>
<path d="M11.0318 44.6763C11.0295 44.6915 11.0295 44.707 11.0318 44.7222V44.7429C11.0093 44.7436 10.9871 44.738 10.9675 44.7268L11.0318 44.6763Z" fill="#FEFEFE"/>
<path d="M16.0427 31.0684C16.0082 31.5624 16.0128 32.061 15.9393 32.555L15.8567 32.6219C14.7199 33.5729 13.5878 34.5263 12.4511 35.4681C12.3133 35.5812 12.35 35.6459 12.435 35.7613L15.0552 39.2492C15.1746 39.4085 15.2986 39.5655 15.4203 39.7224L15.4869 39.8079C15.4847 40.3586 15.4525 40.9088 15.3905 41.456L15.3216 41.3637L12.0423 37.024L11.9872 36.9478L12.3638 34.1523C12.3868 34.1293 12.4143 34.1108 12.435 34.09C13.5878 33.1297 14.736 32.1687 15.8796 31.2069C15.9049 31.1856 15.9318 31.1663 15.96 31.1492L16.0427 31.0684Z" fill="#FE6601"/>
<path d="M15.3721 41.673C15.3695 42.1549 15.3426 42.6365 15.2917 43.1157L15.2274 43.1596L10.8918 46.1905C10.872 46.204 10.8535 46.2195 10.8367 46.2366L10.7655 46.2943C10.7885 45.7588 10.8895 45.2509 10.9561 44.7269C10.9757 44.738 10.9979 44.7436 11.0204 44.7431V44.7223C11.0181 44.707 11.0181 44.6915 11.0204 44.6762L15.154 41.8253L15.3124 41.7215L15.3721 41.673Z" fill="#FE6601"/>
<path d="M11.0318 44.6763C11.0295 44.6915 11.0295 44.707 11.0318 44.7222V44.7429C11.0093 44.7436 10.9871 44.738 10.9675 44.7268L11.0318 44.6763Z" fill="#FE6600"/>
<path d="M16.1667 28.8915C16.1662 29.4319 16.1309 29.9716 16.061 30.5074L15.999 30.4081C15.1999 29.1362 14.3915 27.8689 13.613 26.5855L13.551 26.4862C13.9927 26.7147 14.4655 26.8765 14.9541 26.9663C14.9725 26.9964 14.9886 27.0194 15.0047 27.0494C15.3468 27.645 15.7143 28.229 16.0955 28.7992L16.1667 28.8915Z" fill="#FE6601"/>
<path d="M16.2884 26.9387L16.2424 26.9617C16.2402 26.955 16.2402 26.9477 16.2424 26.941L16.2884 26.9387Z" fill="#FDFDFD"/>
<path d="M60.5726 49.2399V49.2766C60.5694 49.2756 60.5664 49.2739 60.564 49.2714C60.5616 49.269 60.5598 49.2661 60.5588 49.2628C60.5655 49.2566 60.5703 49.2487 60.5726 49.2399Z" fill="#FDFCFB"/>
<path d="M47.6919 2.57617V2.64047H47.6414C47.6542 2.61619 47.6713 2.59441 47.6919 2.57617Z" fill="#FEFEFE"/>
<path d="M59.0984 14.2288C59.0893 14.2473 59.0817 14.2665 59.0754 14.2862C59.0683 14.2818 59.0627 14.2754 59.0593 14.2678L59.0984 14.2288Z" fill="#FEFEFE"/>
<path d="M19.8225 22.0195C19.8069 22.102 19.8015 22.1861 19.8065 22.2698C19.8142 22.227 19.8273 22.1854 19.8455 22.1458C19.8414 22.1032 19.8337 22.0609 19.8225 22.0195Z" fill="#FEFEFE"/>
<path d="M11.3786 23.3861H8.82263C8.8999 23.0097 8.90613 22.6221 8.841 22.2434H11.3349C11.3161 22.6248 11.3307 23.0072 11.3786 23.3861Z" fill="#0A2786"/>
<path d="M20.8399 18.7394C20.8355 18.7646 20.8285 18.7894 20.8192 18.8132C20.5896 19.6004 20.36 20.3899 20.1303 21.1724C20.0339 21.4956 19.9351 21.8164 19.8364 22.1396C19.8323 22.0967 19.8246 22.0542 19.8134 22.0127C19.7978 22.0955 19.7924 22.18 19.7973 22.2643C19.7087 21.7412 19.5544 21.2316 19.338 20.7477C19.3351 20.7213 19.3425 20.6948 19.3587 20.6738C19.4804 20.2237 19.6527 19.7874 19.7399 19.3326C19.7399 19.3049 19.7399 19.2795 19.756 19.2518L20.8399 18.7394Z" fill="#FE6601"/>
<path d="M19.8455 22.1297C19.8389 22.1736 19.8257 22.2161 19.8065 22.256C19.8015 22.1723 19.8069 22.0882 19.8226 22.0057C19.8336 22.0464 19.8412 22.0879 19.8455 22.1297Z" fill="#FE6601"/>
<path d="M44.1968 9.83135L44.1647 9.88675L43.3472 11.401C43.3311 11.4311 43.3173 11.4611 43.2989 11.4911C42.9011 11.7058 42.4926 11.9 42.075 12.0728L42.1163 11.9897L43.7445 8.9888C43.7605 8.9634 43.772 8.93801 43.7858 8.91724C43.8972 9.23294 44.0347 9.53871 44.1968 9.83135Z" fill="#FE6601"/>
<path d="M47.6919 2.64081V4.16434H47.646C47.412 4.14818 47.1773 4.14818 46.9433 4.16434H46.8997V2.62927H46.9226C47.157 2.7055 47.4093 2.7055 47.6437 2.62927H47.6804L47.6919 2.64081Z" fill="#0A2786"/>
<path d="M47.6919 2.57617V2.64047H47.6414C47.6542 2.61619 47.6713 2.59441 47.6919 2.57617Z" fill="#0A2785"/>
<path d="M33.0339 16.3754L32.9719 16.3432L33.0087 16.3248C33.0172 16.33 33.0241 16.3375 33.0286 16.3464C33.0331 16.3554 33.0349 16.3654 33.0339 16.3754Z" fill="#FEFEFE"/>
<path d="M40.7889 12.6222H40.7361L40.8073 12.652C40.8034 12.6409 40.7971 12.6307 40.7889 12.6222Z" fill="#FEFEFE"/>
<path d="M41.9395 12.1304C41.5718 12.3297 41.1939 12.5092 40.8073 12.6683C40.8072 12.6483 40.8007 12.6289 40.789 12.6129H40.7361L37.9161 11.5003C37.7485 11.4333 37.5809 11.371 37.4178 11.2948C37.2984 11.2394 37.2249 11.2556 37.1698 11.3825L35.5623 15.0759C35.5485 15.1036 35.5393 15.1336 35.5279 15.1567C35.131 15.3712 34.7232 15.5646 34.3062 15.7361C34.3162 15.7109 34.3277 15.6862 34.3406 15.6622C34.9361 14.3049 35.5324 12.9499 36.1295 11.5972C36.1479 11.5557 36.164 11.5118 36.1823 11.4656L36.2099 11.3848C36.7955 11.0709 37.3971 10.787 38.008 10.5261L38.0884 10.5584L40.1551 11.3918C40.7292 11.6226 41.3034 11.8373 41.8866 12.0658C41.9073 12.0847 41.925 12.1065 41.9395 12.1304Z" fill="#FE6601"/>
<path d="M40.8073 12.6751L40.7361 12.6453H40.7889C40.7971 12.6537 40.8034 12.6639 40.8073 12.6751Z" fill="#FE6600"/>
<path d="M33.0339 16.3754L32.9719 16.3432L33.0087 16.3248C33.0172 16.33 33.0241 16.3375 33.0286 16.3464C33.0331 16.3554 33.0349 16.3654 33.0339 16.3754Z" fill="#FE6601"/>
<path d="M34.1339 15.8516L33.0431 16.3871C33.0441 16.3774 33.0425 16.3675 33.0385 16.3586C33.0344 16.3497 33.0281 16.342 33.0202 16.3363L32.9811 16.3548C32.1544 15.9393 31.3231 15.5261 30.4964 15.106L29.5227 14.605L30.602 14.0787L30.6801 14.1157L33.6815 15.623L34.0788 15.8216L34.1339 15.8516Z" fill="#FE6601"/>
<path d="M28.8842 14.9167C28.8842 14.9398 28.8681 14.9629 28.859 14.986C28.4135 16.271 27.9687 17.5575 27.5247 18.8456C27.5101 18.8864 27.4978 18.928 27.488 18.9702C27.4797 18.9921 27.4728 19.0145 27.4673 19.0372C27.1229 19.2011 26.7784 19.3673 26.4316 19.5358C26.4356 19.5081 26.445 19.4814 26.4592 19.4573C26.9024 18.1946 27.3456 16.9181 27.7934 15.66C27.8187 15.5931 27.8393 15.5238 27.86 15.4569C27.867 15.4326 27.8755 15.4087 27.8853 15.3853C28.2054 15.2027 28.5394 15.046 28.8842 14.9167Z" fill="#FE6601"/>
<path d="M6.82709 79.5534C7.08614 79.5497 7.34044 79.6234 7.55778 79.7652C7.77513 79.9069 7.94574 80.1103 8.04802 80.3495C8.1503 80.5888 8.17965 80.8532 8.13234 81.1093C8.08503 81.3653 7.9632 81.6015 7.78228 81.7879C7.60135 81.9743 7.36947 82.1025 7.11599 82.1563C6.86251 82.2102 6.59884 82.1872 6.35836 82.0903C6.11789 81.9934 5.91143 81.827 5.76512 81.612C5.61882 81.3971 5.53925 81.1434 5.5365 80.883V80.8668C5.53883 80.522 5.67505 80.1917 5.91613 79.9463C6.15721 79.701 6.48408 79.56 6.82709 79.5534Z" fill="black"/>
<path d="M38.132 80.883C38.1315 81.1434 38.0542 81.3977 37.9099 81.6139C37.7656 81.83 37.5607 81.9983 37.3213 82.0974C37.0818 82.1965 36.8184 82.222 36.5645 82.1706C36.3106 82.1192 36.0776 81.9932 35.895 81.8087C35.7123 81.6241 35.5883 81.3892 35.5385 81.1337C35.4887 80.8782 35.5154 80.6137 35.6152 80.3735C35.7151 80.1332 35.8836 79.9282 36.0994 79.7843C36.3152 79.6404 36.5686 79.564 36.8276 79.5649H36.8437C37.1874 79.571 37.5151 79.7125 37.7561 79.9591C37.997 80.2056 38.132 80.5374 38.132 80.883Z" fill="black"/>
<path d="M0.0250244 101.709V87.2171H6.0761C7.16095 87.1904 8.23786 87.4097 9.22679 87.8589C10.0757 88.2544 10.7864 88.898 11.266 89.7056C11.7334 90.5844 11.9779 91.5656 11.9779 92.5622C11.9779 93.5587 11.7334 94.5399 11.266 95.4188C10.7813 96.2222 10.0721 96.8644 9.22679 97.2655C8.23972 97.7213 7.16198 97.9439 6.0761 97.9164H2.0918L3.77967 96.1159V101.704L0.0250244 101.709ZM3.78197 96.5961L2.0918 94.6709H5.84646C6.63183 94.6709 7.22048 94.4877 7.6124 94.1215C7.99122 93.694 8.20053 93.1416 8.20053 92.5691C8.20053 91.9967 7.99122 91.4442 7.6124 91.0167C7.21972 90.6382 6.63183 90.4466 5.84646 90.4466H2.0918L3.77967 88.5629L3.78197 96.5961Z" fill="#E81E1E"/>
<path d="M14.4766 101.709V87.2171H20.5276C21.6125 87.1904 22.6894 87.4097 23.6783 87.8589C24.5273 88.2544 25.2379 88.898 25.7176 89.7056C26.2094 90.5737 26.457 91.5599 26.434 92.5587C26.4636 93.5626 26.2156 94.5551 25.7176 95.4257C25.2327 96.2206 24.5226 96.8516 23.6783 97.2378C22.6874 97.6797 21.6113 97.8949 20.5276 97.868H16.5433L18.2335 96.1298V101.718L14.4766 101.709ZM18.2335 96.5961L16.5433 94.6917H20.3003C21.0857 94.6917 21.6736 94.5054 22.0639 94.133C22.2664 93.9268 22.4234 93.68 22.5246 93.4088C22.6259 93.1376 22.6693 92.8479 22.6518 92.5587C22.667 92.2752 22.6232 91.9916 22.5232 91.7261C22.4231 91.4606 22.2691 91.219 22.0708 91.0167C21.6804 90.6382 21.0926 90.4466 20.3072 90.4466H16.5433L18.2335 88.5629V96.5961ZM22.6725 101.709L19.3702 96.4299H23.3729L26.6935 101.709H22.6725Z" fill="#E81E1E"/>
<path d="M35.6656 102C34.6619 102.008 33.6663 101.819 32.7353 101.441C31.8532 101.084 31.0553 100.544 30.393 99.8579C29.728 99.1649 29.2032 98.3488 28.8475 97.4549C28.4656 96.4975 28.2752 95.4738 28.2872 94.4424C28.2762 93.4216 28.4667 92.4087 28.8475 91.4623C29.205 90.5727 29.7297 89.7608 30.393 89.0708C31.0526 88.3855 31.8473 87.8462 32.7261 87.4873C34.6165 86.7425 36.7169 86.7425 38.6073 87.4873C39.4838 87.8454 40.2779 88.3804 40.9404 89.0593C41.6037 89.7457 42.1286 90.5546 42.4859 91.4415C42.868 92.3948 43.0585 93.4147 43.0463 94.4424C43.0588 95.4798 42.8717 96.5097 42.4951 97.4756C42.1481 98.3673 41.6243 99.1787 40.9556 99.8605C40.2868 100.542 39.4871 101.08 38.605 101.441C37.6713 101.82 36.6724 102.01 35.6656 102ZM35.6656 98.6044C36.1522 98.6087 36.6342 98.5096 37.0802 98.3136C37.5161 98.1222 37.9043 97.836 38.2169 97.4756C38.5507 97.0936 38.8087 96.6509 38.977 96.1714C39.3444 95.0625 39.3444 93.8639 38.977 92.755C38.8076 92.276 38.5497 91.8335 38.2169 91.4508C37.9031 91.0917 37.5152 90.8058 37.0802 90.6128C36.633 90.4224 36.1523 90.3243 35.6667 90.3243C35.1811 90.3243 34.7004 90.4224 34.2533 90.6128C33.8158 90.8073 33.4244 91.0929 33.105 91.4508C32.7689 91.8307 32.5113 92.2741 32.3472 92.755C31.992 93.8658 31.992 95.0606 32.3472 96.1714C32.5102 96.6528 32.768 97.0964 33.105 97.4756C33.4232 97.8349 33.8149 98.1207 34.2533 98.3136C34.6983 98.5096 35.1796 98.6087 35.6656 98.6044Z" fill="#E81E1E"/>
<path d="M48.3947 102C47.4896 102.012 46.5929 101.824 45.7676 101.451C44.9879 101.094 44.3073 100.55 43.7858 99.867L45.8342 97.1963C46.1315 97.635 46.5039 98.0172 46.9342 98.325C47.2852 98.5716 47.7024 98.7052 48.1306 98.7082C49.2298 98.7082 49.7802 98.0111 49.7817 96.6169V90.405H45.2096V87.2172H53.518V96.3883C53.518 98.2673 53.0817 99.6716 52.209 100.601C51.3364 101.531 50.065 101.997 48.3947 102Z" fill="#E81E1E"/>
<path d="M60.2511 98.5213H67.1955V101.709H56.5538V87.2172H66.9497V90.405H60.2511V98.5213ZM59.987 92.8288H66.1621V95.8712H59.987V92.8288Z" fill="#E81E1E"/>
<path d="M76.3765 102C75.3824 102.011 74.396 101.824 73.4739 101.451C72.6062 101.097 71.8193 100.569 71.1614 99.8994C70.4933 99.2147 69.9699 98.4012 69.6228 97.5079C68.8909 95.5455 68.8909 93.3831 69.6228 91.4207C69.9694 90.5271 70.4928 89.7135 71.1614 89.0293C71.8197 88.3595 72.6064 87.8309 73.4739 87.4757C75.4784 86.6976 77.708 86.7499 79.6742 87.6212C80.6374 88.0821 81.468 88.782 82.0877 89.6548L79.6972 92.014C79.3121 91.5009 78.8278 91.0714 78.2734 90.7513C77.7516 90.4606 77.1637 90.311 76.5671 90.3173C76.053 90.3108 75.5429 90.409 75.0676 90.6059C74.6213 90.794 74.2227 91.0804 73.901 91.4438C73.5681 91.8305 73.311 92.2769 73.1432 92.7596C72.7757 93.8613 72.7757 95.0535 73.1432 96.1552C73.3105 96.6374 73.5677 97.0832 73.901 97.4687C74.2214 97.8335 74.6204 98.1201 75.0676 98.3066C75.5428 98.5042 76.0529 98.6032 76.5671 98.5975C77.1636 98.6029 77.7513 98.4534 78.2734 98.1635C78.831 97.8389 79.3157 97.402 79.6972 96.88L82.0877 99.2392C81.4667 100.117 80.6348 100.822 79.6696 101.289C78.6397 101.774 77.5136 102.017 76.3765 102Z" fill="#E81E1E"/>
<path d="M87.0595 101.709V90.4673H82.9788V87.2172H94.8673V90.4673H90.8142V101.709H87.0595Z" fill="#E81E1E"/>
<path d="M100.034 101.709L95.7262 87.2172H99.598L103.219 99.7632H101.265L105.08 87.2172H108.524L112.13 99.7632H110.253L113.992 87.2172H117.577L113.271 101.709H109.252L106.18 91.0398H107.243L104.074 101.702L100.034 101.709Z" fill="#E81E1E"/>
<path d="M119.705 101.709V87.2172H123.462V101.709H119.705Z" fill="#E81E1E"/>
<path d="M131.259 102C130.19 102.005 129.127 101.855 128.101 101.554C127.23 101.32 126.406 100.938 125.662 100.426L126.896 97.3832C127.535 97.8178 128.23 98.1627 128.962 98.4081C129.709 98.6713 130.495 98.8078 131.286 98.8121C131.712 98.8252 132.138 98.7762 132.549 98.6667C132.814 98.5995 133.054 98.4559 133.238 98.2535C133.388 98.0728 133.47 97.8446 133.468 97.6094C133.47 97.4579 133.432 97.3085 133.359 97.176C133.286 97.0436 133.179 96.9328 133.05 96.8546C132.712 96.6417 132.345 96.4813 131.959 96.3791C131.512 96.2467 131.025 96.1221 130.499 96.0051C129.954 95.884 129.417 95.7298 128.891 95.5434C128.365 95.3586 127.867 95.1006 127.412 94.7771C126.959 94.4535 126.588 94.0273 126.328 93.5328C126.037 92.9346 125.897 92.2734 125.92 91.6077C125.909 90.7826 126.13 89.9713 126.558 89.267C127.032 88.5234 127.711 87.934 128.512 87.5703C129.385 87.1425 130.473 86.9286 131.775 86.9286C132.642 86.9275 133.505 87.0352 134.345 87.2495C135.137 87.4413 135.891 87.7668 136.575 88.2121L135.427 91.2337C134.842 90.8686 134.211 90.5837 133.551 90.3865C132.965 90.2117 132.358 90.1208 131.748 90.1165C131.322 90.1017 130.897 90.165 130.494 90.3034C130.224 90.3917 129.984 90.5569 129.805 90.779C129.67 90.9577 129.597 91.1756 129.596 91.3999C129.592 91.5547 129.628 91.7079 129.702 91.844C129.775 91.9802 129.883 92.0945 130.014 92.1755C130.347 92.388 130.712 92.5439 131.096 92.6372C131.539 92.7526 132.028 92.868 132.565 92.9973C133.109 93.1223 133.646 93.2764 134.173 93.459C134.694 93.6409 135.188 93.8917 135.643 94.2046C136.096 94.5202 136.47 94.9385 136.733 95.4257C137.03 96.0116 137.174 96.6637 137.151 97.3209C137.157 98.1439 136.93 98.9515 136.497 99.65C136.019 100.397 135.338 100.991 134.533 101.358C133.665 101.786 132.574 102 131.259 102Z" fill="#E81E1E"/>
<path d="M143.058 98.5213H150.002V101.709H139.358V87.2172H149.752V90.405H143.058V98.5213ZM142.791 92.8288H148.957V95.8712H142.791V92.8288Z" fill="#E81E1E"/>
</g>
<defs>
<clipPath id="clip0_2071_2617">
<rect width="150" height="102" fill="white"/>
</clipPath>
</defs>
</svg>
